# XSI Wavefront OBJ Export v3.0
# File Created: Sat Sep 21 18:12:12 2019
# XSI Version: 13.0.114.0
mtllib tower_center_border_big_lp.mtl

o border_big_lp
# Hierarchy (from self to top father)
g border_big_lp

#begin 16 vertices
v 3.472592 0.987633 -0.318808
v 3.476604 0.984535 0.332420
v 5.189322 0.178213 -0.325247
v 5.188824 0.177800 0.327175
v 5.202261 0.006679 0.325778
v 5.195040 0.004504 -0.335517
v 3.469660 0.249317 0.770194
v 3.467330 0.004771 0.770599
v 2.863550 0.309732 0.768826
v 2.860110 0.003361 0.767971
v 2.858854 0.310624 -0.766041
v 2.854506 0.008349 -0.760362
v 3.471948 0.255702 -0.769284
v 3.466178 0.004927 -0.770664
v 3.067924 0.982409 -0.326132
v 3.071344 0.982749 0.327881
#end 16 vertices

#begin 50 normals
vn 0.426347 0.904559 0.001287
vn 0.426347 0.904559 0.001287
vn 0.426347 0.904559 0.001287
vn 0.426347 0.904559 0.001287
vn 0.998438 0.055635 -0.005185
vn 0.998438 0.055635 -0.005185
vn 0.998438 0.055635 -0.005185
vn 0.998438 0.055635 -0.005185
vn 0.249027 0.004342 0.968487
vn 0.249027 0.004342 0.968487
vn 0.249027 0.004342 0.968487
vn 0.249027 0.004342 0.968487
vn -0.003332 -0.000781 0.999994
vn -0.003332 -0.000781 0.999994
vn -0.003332 -0.000781 0.999994
vn -0.003332 -0.000781 0.999994
vn -0.999912 0.012822 0.003387
vn -0.999912 0.012822 0.003387
vn -0.999912 0.012822 0.003387
vn -0.999912 0.012822 0.003387
vn -0.011419 -0.007563 -0.999906
vn -0.011419 -0.007563 -0.999906
vn -0.011419 -0.007563 -0.999906
vn -0.011419 -0.007563 -0.999906
vn 0.247673 0.026551 -0.968480
vn 0.247673 0.026551 -0.968480
vn 0.247673 0.026551 -0.968480
vn 0.247673 0.026551 -0.968480
vn -0.008688 0.999960 0.002163
vn -0.008688 0.999960 0.002163
vn -0.008688 0.999960 0.002163
vn -0.008688 0.999960 0.002163
vn -0.955155 0.296084 0.003616
vn -0.955155 0.296084 0.003616
vn -0.955155 0.296084 0.003616
vn -0.955155 0.296084 0.003616
vn 0.025552 0.526400 0.849853
vn 0.025552 0.526400 0.849853
vn 0.025552 0.526400 0.849853
vn 0.025552 0.526400 0.849853
vn 0.236025 0.495507 0.835922
vn 0.236025 0.495507 0.835922
vn 0.236025 0.495507 0.835922
vn 0.029383 0.532272 -0.846063
vn 0.029383 0.532272 -0.846063
vn 0.029383 0.532272 -0.846063
vn 0.029383 0.532272 -0.846063
vn 0.236918 0.509071 -0.827476
vn 0.236918 0.509071 -0.827476
vn 0.236918 0.509071 -0.827476
#end 50 vertex normals

#begin texture vertices
vt 0.751884 0.631145 0.000000
vt 0.556238 0.896934 0.000000
vt 0.000000 0.193832 0.000000
vt 0.000000 0.203988 0.000000
vt 0.000936 0.000000 0.000000
vt 0.750072 0.896934 0.000000
vt 0.480433 0.652151 0.000000
vt 0.927164 0.271295 0.000000
vt 0.564908 0.194183 0.000000
vt 0.206261 0.853734 0.000000
vt 0.470177 0.766171 0.000000
vt 0.526091 0.409776 0.000000
vt 0.528828 0.843582 0.000000
vt 0.400444 0.854368 0.000000
vt 0.564288 0.000000 0.000000
vt 0.401031 0.472663 0.000000
vt 0.399891 0.905455 0.000000
vt 0.534852 0.792848 0.000000
vt 0.467023 0.714447 0.000000
vt 0.203053 0.905455 0.000000
vt 0.233383 0.590239 0.000000
vt 0.006530 0.853734 0.000000
vt 0.000000 0.843582 0.000000
vt 0.927164 0.525984 0.000000
vt 0.002229 0.770827 0.000000
vt 0.000000 0.926229 0.000000
vt 0.543168 0.261142 0.000000
vt 0.000000 0.489504 0.000000
vt 0.187824 0.853734 0.000000
vt 0.203053 0.768977 0.000000
vt 0.179799 0.944573 0.000000
vt 0.000204 0.580696 0.000000
vt 0.954700 0.866065 0.000000
vt 0.456832 0.489504 0.000000
vt 1.000000 0.261142 0.000000
vt 0.472099 0.515227 0.000000
vt 0.455093 0.579480 0.000000
vt 0.947971 0.776324 0.000000
vt 0.998640 0.766171 0.000000
vt 0.771489 0.866065 0.000000
vt 0.504331 0.695581 0.000000
vt 0.000000 0.459789 0.000000
vt 0.766527 0.791569 0.000000
vt 0.997146 0.691526 0.000000
vt 0.868994 0.051783 0.000000
vt 0.553321 0.776496 0.000000
vt 0.719069 0.515227 0.000000
vt 0.747980 0.776324 0.000000
vt 0.674335 0.051453 0.000000
vt 0.450388 0.768977 0.000000
#end 50 texture vertices

#begin 13 faces
usemtl scene_material
f 1/3/1 2/5/2 4/15/3 3/9/4 
usemtl scene_material
f 3/10/5 4/14/6 5/17/7 6/20/8 
usemtl scene_material
f 5/18/9 4/13/10 7/23/11 8/25/12 
usemtl scene_material
f 8/26/13 7/22/14 9/29/15 10/31/16 
usemtl scene_material
f 10/32/17 9/28/18 11/34/19 12/37/20 
usemtl scene_material
f 12/38/21 11/33/22 13/40/23 14/43/24 
usemtl scene_material
f 14/44/25 13/39/26 3/11/27 6/19/28 
usemtl scene_material
f 2/6/29 1/2/30 15/46/31 16/48/32 
usemtl scene_material
f 16/49/33 15/45/34 11/35/35 9/27/36 
usemtl scene_material
f 2/7/37 16/50/38 9/30/39 7/21/40 
usemtl scene_material
f 2/8/41 7/24/42 4/16/43 
usemtl scene_material
f 15/47/44 1/1/45 13/41/46 11/36/47 
usemtl scene_material
f 13/42/48 1/4/49 3/12/50 
#end 13 faces
